<svg width="495" height="379" viewBox="0 0 495 379" fill="none" xmlns="http://www.w3.org/2000/svg">
<g clip-path="url(#clip0_83_730)">
<path d="M453.08 162.497C448.214 143.669 440.729 125.727 430.623 109.174C412.908 80.1112 381.593 36.0121 346.037 18.8274C291.143 -7.70785 241.239 -8.97144 196.326 32.7268C151.413 74.4251 123.966 193.202 107.747 213.419C91.5288 233.637 42.8728 237.427 24.159 269.017C5.44518 300.607 11.3089 375.158 11.3089 375.158H478.281C478.281 375.158 484.769 285.696 453.08 162.497Z" fill="#C6FF00"/>
<path opacity="0.8" d="M453.08 162.497C448.214 143.669 440.729 125.727 430.623 109.174C412.908 80.1112 381.593 36.0121 346.037 18.8274C291.143 -7.70785 241.239 -8.97144 196.326 32.7268C151.413 74.4251 123.966 193.202 107.747 213.419C91.5288 233.637 42.8728 237.427 24.159 269.017C5.44518 300.607 11.3089 375.158 11.3089 375.158H478.281C478.281 375.158 484.769 285.696 453.08 162.497Z" fill="white"/>
<path d="M414.654 117.134C409.04 114.102 406.545 116.629 404.549 114.102C402.553 111.574 410.163 104.877 394.942 98.1804C394.942 98.1804 393.944 83.7756 373.234 83.2701C352.524 82.7647 358.014 97.675 352.524 101.213C346.91 104.751 345.413 99.1913 339.924 102.729C334.31 106.267 336.93 113.47 332.313 114.481C327.822 115.492 321.709 109.932 316.095 113.47C310.481 117.008 310.481 120.167 307.985 120.167C305.49 120.167 300.375 118.145 297.381 120.167C294.387 122.189 290.769 124.716 290.769 124.716H418.771C418.647 124.842 420.268 120.293 414.654 117.134Z" fill="white"/>
<path opacity="0.5" d="M414.654 117.134C409.04 114.102 406.545 116.629 404.549 114.102C402.553 111.574 410.163 104.877 394.942 98.1804C394.942 98.1804 393.944 83.7756 373.234 83.2701C352.524 82.7647 358.014 97.675 352.524 101.213C346.91 104.751 345.413 99.1913 339.924 102.729C334.31 106.267 336.93 113.47 332.313 114.481C327.822 115.492 321.709 109.932 316.095 113.47C310.481 117.008 310.481 120.167 307.985 120.167C305.49 120.167 300.375 118.145 297.381 120.167C294.387 122.189 290.769 124.716 290.769 124.716H418.771C418.647 124.842 420.268 120.293 414.654 117.134Z" fill="white"/>
<path d="M262.074 39.0447C258.83 37.2757 257.333 38.792 256.086 37.2757C254.838 35.7594 259.33 31.8423 250.347 27.9252C250.347 27.9252 249.723 19.4592 237.497 19.0801C225.146 18.8274 228.514 27.5461 225.146 29.6942C221.902 31.8423 220.904 28.4306 217.66 30.5787C214.416 32.7268 215.913 36.8966 213.169 37.5284C210.424 38.1602 206.931 34.7486 203.562 36.8966C200.319 39.0447 200.319 40.8138 198.821 40.8138C197.324 40.8138 194.33 39.5502 192.584 40.8138C190.837 42.0773 188.716 43.5936 188.716 43.5936H264.569C264.445 43.5936 265.318 40.8138 262.074 39.0447Z" fill="white"/>
<path opacity="0.5" d="M262.074 39.0447C258.83 37.2757 257.333 38.792 256.086 37.2757C254.838 35.7594 259.33 31.8423 250.347 27.9252C250.347 27.9252 249.723 19.4592 237.497 19.0801C225.146 18.8274 228.514 27.5461 225.146 29.6942C221.902 31.8423 220.904 28.4306 217.66 30.5787C214.416 32.7268 215.913 36.8966 213.169 37.5284C210.424 38.1602 206.931 34.7486 203.562 36.8966C200.319 39.0447 200.319 40.8138 198.821 40.8138C197.324 40.8138 194.33 39.5502 192.584 40.8138C190.837 42.0773 188.716 43.5936 188.716 43.5936H264.569C264.445 43.5936 265.318 40.8138 262.074 39.0447Z" fill="white"/>
<path d="M223.524 169.699C220.28 167.93 218.783 169.447 217.535 167.93C216.288 166.414 220.779 162.497 211.796 158.58C211.796 158.58 211.173 150.114 198.946 149.735C186.595 149.482 189.964 158.201 186.595 160.349C183.351 162.497 182.353 159.085 179.11 161.233C175.866 163.381 177.363 167.551 174.618 168.183C171.874 168.815 168.38 165.403 165.012 167.551C161.768 169.699 161.768 171.468 160.271 171.468C158.774 171.468 155.78 170.205 154.033 171.468C152.286 172.732 150.165 174.248 150.165 174.248H226.019C225.894 174.248 226.892 171.595 223.524 169.699Z" fill="white"/>
<path opacity="0.5" d="M223.524 169.699C220.28 167.93 218.783 169.447 217.535 167.93C216.288 166.414 220.779 162.497 211.796 158.58C211.796 158.58 211.173 150.114 198.946 149.735C186.595 149.482 189.964 158.201 186.595 160.349C183.351 162.497 182.353 159.085 179.11 161.233C175.866 163.381 177.363 167.551 174.618 168.183C171.874 168.815 168.38 165.403 165.012 167.551C161.768 169.699 161.768 171.468 160.271 171.468C158.774 171.468 155.78 170.205 154.033 171.468C152.286 172.732 150.165 174.248 150.165 174.248H226.019C225.894 174.248 226.892 171.595 223.524 169.699Z" fill="white"/>
<path d="M16.0497 374.779L165.885 183.851C169.503 179.302 176.365 179.302 179.858 184.104L273.178 310.336L360.509 165.529C364.002 159.591 372.611 159.843 375.854 165.909L487.888 373.768L16.0497 374.779Z" fill="#C6FF00"/>
<path opacity="0.5" d="M16.0497 374.779L165.885 183.851C169.503 179.302 176.365 179.302 179.858 184.104L273.178 310.336L360.509 165.529C364.002 159.591 372.611 159.843 375.854 165.909L487.888 373.768L16.0497 374.779Z" fill="white"/>
<mask id="mask0_83_730" style="mask-type:luminance" maskUnits="userSpaceOnUse" x="16" y="161" width="472" height="214">
<path d="M16.0497 374.779L165.885 183.851C169.503 179.302 176.365 179.302 179.858 184.104L273.178 310.336L360.509 165.529C364.002 159.591 372.611 159.843 375.854 165.909L487.888 373.768L16.0497 374.779Z" fill="white"/>
</mask>
<g mask="url(#mask0_83_730)">
<g opacity="0.2">
<path d="M176.115 181.198L226.767 374.4L321.459 374.273L179.983 184.104C178.985 182.714 177.612 181.703 176.115 181.198Z" fill="black"/>
<path d="M375.979 166.035C374.108 162.623 370.739 161.107 367.371 161.36L441.228 373.894L488.013 373.768L375.979 166.035Z" fill="black"/>
</g>
</g>
<mask id="mask1_83_730" style="mask-type:luminance" maskUnits="userSpaceOnUse" x="16" y="161" width="472" height="214">
<path d="M16.0497 374.779L165.885 183.851C169.503 179.302 176.365 179.302 179.858 184.104L273.178 310.336L360.509 165.529C364.002 159.591 372.611 159.843 375.854 165.909L487.888 373.768L16.0497 374.779Z" fill="white"/>
</mask>
<g mask="url(#mask1_83_730)">
<path opacity="0.2" d="M109.868 373.642L115.607 340.915L94.7725 373.642H109.868Z" fill="black"/>
</g>
<path d="M377.227 374.273H441.477C440.23 366.313 435.24 367.703 434.491 355.32C434.117 349.128 439.856 341.42 439.357 333.207C438.982 326.51 432.37 319.56 431.871 311.852C431.372 304.903 436.986 297.195 436.487 289.74C435.988 282.664 429.376 275.84 428.752 268.512C428.128 261.309 433.618 253.601 432.994 246.272C432.37 239.07 425.633 232.373 424.885 225.171C424.136 217.842 429.501 209.881 428.627 202.932C427.754 195.476 420.767 189.032 419.894 182.082C418.896 174.375 423.762 166.288 422.639 159.591C421.267 151.504 413.781 145.565 412.159 139.626C409.29 128.506 409.664 117.766 406.171 117.008C402.428 116.25 401.679 126.737 398.81 138.489C397.438 144.428 390.077 150.366 388.954 158.453C387.956 165.024 393.071 172.985 392.322 180.566C391.574 187.389 384.837 193.96 384.088 201.415C383.465 208.365 388.954 216.073 388.455 223.402C387.956 230.478 381.344 237.301 380.845 244.503C380.346 251.706 386.085 259.287 385.71 266.363C385.336 273.692 378.849 280.516 378.474 287.592C378.1 295.047 383.964 302.502 383.589 309.452C383.34 317.033 376.852 324.109 376.728 330.806C376.478 338.893 382.342 346.348 382.092 352.54C381.718 365.934 375.605 363.154 375.48 373.894L377.227 374.273Z" fill="#BAEF00"/>
<path d="M404.798 138.741V371.241" stroke="#263238" stroke-miterlimit="10"/>
<path d="M414.779 163.129L404.299 172.226L395.816 160.728" fill="#BAEF00"/>
<path d="M414.779 163.129L404.299 172.226L395.816 160.728" stroke="#263238" stroke-miterlimit="10"/>
<path d="M414.779 203.563L404.299 212.661L395.816 201.163" fill="#BAEF00"/>
<path d="M414.779 203.563L404.299 212.661L395.816 201.163" stroke="#263238" stroke-miterlimit="10"/>
<path d="M414.779 241.597L404.299 250.821L395.816 239.196" fill="#BAEF00"/>
<path d="M414.779 241.597L404.299 250.821L395.816 239.196" stroke="#263238" stroke-miterlimit="10"/>
<path d="M414.779 286.96L404.299 296.058L395.816 284.559" fill="#BAEF00"/>
<path d="M414.779 286.96L404.299 296.058L395.816 284.559" stroke="#263238" stroke-miterlimit="10"/>
<path d="M414.779 332.702L404.299 341.799L395.816 330.301" fill="#BAEF00"/>
<path d="M414.779 332.702L404.299 341.799L395.816 330.301" stroke="#263238" stroke-miterlimit="10"/>
<path d="M309.607 374.273H365.375C364.252 367.324 359.885 368.587 359.386 357.847C359.137 352.413 364.002 345.843 363.628 338.767C363.254 332.954 357.64 327.015 357.14 320.318C356.766 314.253 361.632 307.556 361.133 301.112C360.634 294.92 354.895 289.108 354.396 282.664C353.897 276.472 358.638 269.649 358.139 263.457C357.639 257.139 351.776 251.327 351.152 245.135C350.528 238.817 355.144 231.868 354.396 225.802C353.647 219.358 347.659 213.798 346.785 207.733C345.912 201.036 350.154 193.96 349.156 188.274C347.908 181.198 341.421 176.144 340.173 170.963C337.678 161.36 337.928 152.009 334.933 151.377C331.69 150.746 331.066 159.843 328.571 170.078C327.323 175.259 321.085 180.44 319.962 187.389C319.089 193.076 323.58 200.025 322.832 206.596C322.208 212.535 316.344 218.221 315.721 224.665C315.221 230.73 319.962 237.427 319.463 243.745C318.964 249.937 313.35 255.749 312.851 262.067C312.477 268.259 317.342 274.829 317.093 281.021C316.719 287.339 311.104 293.278 310.855 299.469C310.605 305.914 315.596 312.358 315.346 318.423C315.097 324.994 309.607 331.059 309.358 336.871C309.108 343.947 314.223 350.392 314.099 355.699C313.724 367.324 308.485 364.923 308.36 374.273H309.607Z" fill="#BAEF00"/>
<path d="M333.436 169.952V371.62" stroke="#263238" stroke-miterlimit="10"/>
<path d="M342.169 191.18L333.062 199.014L325.701 189.032" fill="#BAEF00"/>
<path d="M342.169 191.18L333.062 199.014L325.701 189.032" stroke="#263238" stroke-miterlimit="10"/>
<path d="M342.169 226.181L333.062 234.142L325.701 224.16" fill="#BAEF00"/>
<path d="M342.169 226.181L333.062 234.142L325.701 224.16" stroke="#263238" stroke-miterlimit="10"/>
<path d="M342.169 259.287L333.062 267.248L325.701 257.139" fill="#BAEF00"/>
<path d="M342.169 259.287L333.062 267.248L325.701 257.139" stroke="#263238" stroke-miterlimit="10"/>
<path d="M342.169 298.585L333.062 306.419L325.701 296.437" fill="#BAEF00"/>
<path d="M342.169 298.585L333.062 306.419L325.701 296.437" stroke="#263238" stroke-miterlimit="10"/>
<path d="M342.169 338.261L333.062 346.222L325.701 336.113" fill="#BAEF00"/>
<path d="M342.169 338.261L333.062 346.222L325.701 336.113" stroke="#263238" stroke-miterlimit="10"/>
<path d="M32.8921 374.273H88.6594C87.5365 367.324 83.17 368.587 82.6709 357.847C82.4214 352.413 87.287 345.843 86.9127 338.767C86.5385 332.954 80.9243 327.015 80.4253 320.318C80.051 314.253 84.9166 307.556 84.4175 301.112C83.9185 294.92 78.1796 289.108 77.6806 282.664C77.1815 276.472 81.9224 269.649 81.4233 263.457C80.9243 257.139 75.0606 251.327 74.4368 245.135C73.813 238.817 78.4291 231.868 77.6806 225.802C76.932 219.358 70.9436 213.798 70.0703 207.733C69.197 201.036 73.4388 193.96 72.4407 188.274C71.1931 181.198 64.7057 176.144 63.4581 170.963C60.9629 161.36 61.2124 152.009 58.2182 151.377C54.9745 150.746 54.3507 159.843 51.8555 170.078C50.6079 175.259 44.37 180.44 43.2471 187.389C42.3738 193.076 46.8651 200.025 46.1166 206.596C45.4928 212.535 39.6291 218.221 39.0053 224.665C38.5063 230.73 43.2471 237.427 42.7481 243.745C42.249 249.937 36.6349 255.749 36.1359 262.067C35.7616 268.259 40.6272 274.829 40.3777 281.021C40.0034 287.339 34.3892 293.278 34.1397 299.469C33.8902 305.914 38.8806 312.358 38.631 318.423C38.3815 324.994 32.8921 331.059 32.6426 336.871C32.3931 343.947 37.5082 350.392 37.3835 355.699C37.0092 367.324 31.7693 364.923 31.6445 374.273H32.8921Z" fill="#BAEF00"/>
<path d="M56.8458 169.952V371.62" stroke="#263238" stroke-miterlimit="10"/>
<path d="M65.579 191.18L56.4716 199.014L48.986 189.032" stroke="#263238" stroke-miterlimit="10"/>
<path d="M65.579 226.181L56.4716 234.142L48.986 224.16" stroke="#263238" stroke-miterlimit="10"/>
<path d="M65.579 259.287L56.4716 267.248L48.986 257.139" stroke="#263238" stroke-miterlimit="10"/>
<path d="M65.579 298.585L56.4716 306.419L48.986 296.437" stroke="#263238" stroke-miterlimit="10"/>
<path d="M65.579 338.261L56.4716 346.222L48.986 336.113" stroke="#263238" stroke-miterlimit="10"/>
<path d="M334.149 373.898C359.922 367.842 375.968 341.771 369.988 315.667C364.009 289.564 338.268 273.312 312.495 279.368C286.721 285.425 270.675 311.495 276.655 337.599C282.635 363.703 308.375 379.954 334.149 373.898Z" fill="#263238"/>
<path d="M339.277 366.59C361.06 357.67 371.579 332.555 362.773 310.493C353.967 288.431 329.169 277.776 307.387 286.695C285.604 295.614 275.084 320.73 283.89 342.792C292.696 364.854 317.494 375.509 339.277 366.59Z" fill="white"/>
<path d="M323.331 364.165C338.551 364.165 351.526 354.941 357.265 341.673" stroke="#263238" stroke-miterlimit="10" stroke-linecap="round" stroke-linejoin="round"/>
<path d="M323.331 288.982C309.358 288.982 297.256 296.689 290.893 308.188" stroke="#263238" stroke-miterlimit="10" stroke-linecap="round" stroke-linejoin="round"/>
<path d="M323.331 292.772C310.73 292.772 299.876 299.722 294.137 310.083" stroke="#263238" stroke-miterlimit="10" stroke-linecap="round" stroke-linejoin="round"/>
<path d="M322.707 360.374C322.957 360.374 323.081 360.374 323.331 360.374C337.054 360.374 348.782 352.034 354.021 340.03" stroke="#263238" stroke-miterlimit="10" stroke-linecap="round" stroke-linejoin="round"/>
<path d="M323.331 296.942C312.352 296.942 302.746 303.134 297.755 312.231" stroke="#263238" stroke-miterlimit="10" stroke-linecap="round" stroke-linejoin="round"/>
<path d="M323.331 356.204C335.183 356.204 345.538 349.002 350.029 338.64" stroke="#263238" stroke-miterlimit="10" stroke-linecap="round" stroke-linejoin="round"/>
<path d="M323.331 301.617C314.099 301.617 305.989 306.798 301.748 314.38" stroke="#263238" stroke-miterlimit="10" stroke-linecap="round" stroke-linejoin="round"/>
<path d="M323.331 351.655C333.187 351.655 341.67 345.843 345.663 337.25" stroke="#263238" stroke-miterlimit="10" stroke-linecap="round" stroke-linejoin="round"/>
<path d="M205.399 360.952C224.108 342.003 224.108 311.281 205.399 292.333C186.691 273.384 156.358 273.384 137.649 292.333C118.94 311.281 118.94 342.003 137.649 360.952C156.358 379.9 186.691 379.9 205.399 360.952Z" fill="#263238"/>
<path d="M210.71 343.483C219.893 321.578 209.803 296.281 188.175 286.982C166.548 277.682 141.571 287.9 132.389 309.805C123.207 331.711 133.296 357.007 154.924 366.307C176.552 375.607 201.528 365.388 210.71 343.483Z" fill="white"/>
<path d="M171.499 364.165C186.72 364.165 199.695 354.941 205.434 341.673" stroke="#263238" stroke-miterlimit="10" stroke-linecap="round" stroke-linejoin="round"/>
<path d="M171.499 288.982C157.526 288.982 145.425 296.689 139.062 308.188" stroke="#263238" stroke-miterlimit="10" stroke-linecap="round" stroke-linejoin="round"/>
<path d="M171.499 292.772C158.899 292.772 148.045 299.722 142.306 310.083" stroke="#263238" stroke-miterlimit="10" stroke-linecap="round" stroke-linejoin="round"/>
<path d="M170.875 360.374C171.125 360.374 171.25 360.374 171.499 360.374C185.223 360.374 196.95 352.034 202.19 340.03" stroke="#263238" stroke-miterlimit="10" stroke-linecap="round" stroke-linejoin="round"/>
<path d="M171.499 296.942C160.52 296.942 150.914 303.134 145.924 312.231" stroke="#263238" stroke-miterlimit="10" stroke-linecap="round" stroke-linejoin="round"/>
<path d="M171.499 356.204C183.351 356.204 193.706 349.002 198.198 338.64" stroke="#263238" stroke-miterlimit="10" stroke-linecap="round" stroke-linejoin="round"/>
<path d="M171.499 301.617C162.267 301.617 154.158 306.798 149.916 314.38" stroke="#263238" stroke-miterlimit="10" stroke-linecap="round" stroke-linejoin="round"/>
<path d="M171.499 351.655C181.355 351.655 189.839 345.843 193.831 337.25" stroke="#263238" stroke-miterlimit="10" stroke-linecap="round" stroke-linejoin="round"/>
<path d="M284.78 166.414L279.041 140.51C279.041 140.51 272.18 137.983 266.69 141.016C262.199 143.543 246.355 165.909 240.99 173.616C240.74 173.364 240.616 173.237 240.616 173.237C240.616 173.237 239.992 172.226 239.243 173.237C239.243 173.237 235.501 176.649 235.625 177.786C235.625 178.039 236.249 178.797 236.998 179.808L206.182 211.398C206.182 211.398 197.823 211.524 196.326 212.282C194.829 213.04 194.829 213.167 194.829 216.073C194.829 218.853 195.203 221.506 195.702 221.633C196.202 221.759 199.57 222.517 199.944 221.506C200.319 220.369 199.071 218.347 199.071 218.347C199.071 218.347 199.944 215.946 201.816 216.705C203.687 217.463 205.184 219.864 207.555 218.979C209.925 218.095 212.046 214.051 212.046 214.051L245.357 189.032C246.355 190.043 247.103 190.801 247.353 190.927C248.6 191.686 252.717 188.527 252.593 187.01V186.884L284.78 166.414Z" fill="#263238"/>
<path d="M205.309 234.016C204.685 234.016 204.186 233.763 203.937 233.131L196.202 219.358C195.702 218.6 196.077 217.589 196.825 217.084C197.574 216.578 198.572 216.957 199.071 217.715L206.806 231.489C207.305 232.247 206.931 233.258 206.182 233.763C205.808 233.889 205.558 234.016 205.309 234.016Z" fill="white" stroke="#263238" stroke-miterlimit="10" stroke-linecap="round" stroke-linejoin="round"/>
<path d="M233.504 178.292L201.566 211.145C201.566 211.145 193.207 211.271 191.71 212.029C190.213 212.787 190.213 212.914 190.213 215.82C190.213 218.6 190.587 221.253 191.086 221.38C191.585 221.506 194.954 222.264 195.328 221.253C195.702 220.116 194.455 218.095 194.455 218.095C194.455 218.095 195.328 215.694 197.2 216.452C199.071 217.21 200.568 219.611 202.938 218.726C205.309 217.842 207.43 213.798 207.43 213.798L242.113 187.769L233.504 178.292Z" fill="white" stroke="#263238" stroke-miterlimit="10" stroke-linecap="round" stroke-linejoin="round"/>
<path d="M201.441 218.221C201.441 216.073 199.695 214.304 197.574 214.304C195.453 214.304 193.706 216.073 193.706 218.221C193.706 220.369 195.453 222.138 197.574 222.138C199.695 222.012 201.441 220.369 201.441 218.221Z" fill="#263238"/>
<path d="M301.872 221.759C301.872 221.759 296.882 224.286 290.894 224.791C284.905 225.297 280.788 224.539 282.16 228.961C283.533 233.384 292.89 234.268 299.751 232.626C306.613 230.983 309.857 228.456 309.108 224.033C308.11 219.484 303.993 220.874 301.872 221.759Z" fill="#263238"/>
<path d="M280.164 212.029C280.164 212.029 237.871 243.745 236.748 250.442C235.625 257.139 243.36 307.683 243.36 307.683L249.973 309.957C249.973 309.957 253.591 264.847 257.084 256.255C260.702 247.662 296.133 227.319 296.882 217.084C297.755 206.722 288.897 206.722 280.164 212.029Z" fill="#263238"/>
<path d="M243.36 307.683C243.36 307.683 240.616 308.567 236.998 308.82C233.38 309.073 228.514 307.177 228.514 308.567C228.514 309.957 234.502 315.264 237.621 315.517C240.616 315.77 244.483 316.022 244.483 316.022L244.608 318.17L248.6 319.308L249.973 309.831L243.36 307.683Z" fill="#263238"/>
<path d="M244.629 318.207L231.606 311.529L229.746 315.25L242.769 321.928L244.629 318.207Z" fill="white" stroke="#263238" stroke-miterlimit="10" stroke-linecap="round" stroke-linejoin="round"/>
<path d="M237.122 316.654L253.84 328.279L255.462 324.236L237.621 315.517L237.122 316.654Z" fill="white" stroke="#263238" stroke-miterlimit="10" stroke-linecap="round" stroke-linejoin="round"/>
<path d="M324.204 323.856L290.769 238.691C290.644 238.438 290.519 238.312 290.394 238.059L292.141 233.384C292.515 232.499 292.016 231.615 291.143 231.236C290.27 230.857 289.396 231.362 289.022 232.247L285.155 242.608H204.685C206.182 236.669 206.806 233.005 206.931 232.878C207.056 231.994 206.556 231.109 205.683 230.857C204.81 230.73 203.937 231.236 203.687 232.12C203.562 232.626 192.209 288.855 170.127 325.878C169.628 326.636 169.877 327.647 170.626 328.153C170.875 328.279 171.125 328.405 171.499 328.405C171.998 328.405 172.622 328.153 172.872 327.647C184.599 307.935 193.332 283.043 198.946 263.71L253.591 329.164C253.715 329.416 253.84 329.669 253.965 329.922C254.589 330.806 255.587 331.312 256.585 331.312H256.71L321.21 328.532C322.208 328.532 323.206 327.9 323.83 327.015C324.578 326.005 324.578 324.867 324.204 323.856ZM203.812 245.767H283.907L254.464 324.741L200.194 259.666C201.691 254.486 202.814 249.81 203.812 245.767ZM256.71 327.9L288.648 242.482L321.085 325.12L256.71 327.9Z" fill="white" stroke="#263238" stroke-miterlimit="10" stroke-linecap="round" stroke-linejoin="round"/>
<path d="M209.052 232.373C209.052 230.225 207.305 228.456 205.184 228.456C203.063 228.456 201.317 230.225 201.317 232.373C201.317 234.521 203.063 236.29 205.184 236.29C207.43 236.164 209.052 234.521 209.052 232.373Z" fill="white" stroke="#263238" stroke-miterlimit="10" stroke-linecap="round" stroke-linejoin="round"/>
<path d="M176.989 326.636C176.989 323.604 174.618 321.077 171.499 321.077C168.38 321.077 166.01 323.477 166.01 326.636C166.01 329.669 168.38 332.196 171.499 332.196C174.618 332.196 176.989 329.669 176.989 326.636Z" fill="#263238"/>
<path d="M328.072 326.636C328.072 323.604 325.701 321.077 322.582 321.077C319.588 321.077 317.093 323.477 317.093 326.636C317.093 329.669 319.463 332.196 322.582 332.196C325.701 332.07 328.072 329.669 328.072 326.636Z" fill="#263238"/>
<path d="M266.94 326.636C266.94 320.318 261.949 315.264 255.711 315.264C249.474 315.264 244.483 320.318 244.483 326.636C244.483 332.954 249.474 338.009 255.711 338.009C261.949 338.009 266.94 332.828 266.94 326.636Z" fill="#263238"/>
<path d="M272.803 328.784L255.462 324.109C254.09 323.73 252.717 324.615 252.343 325.878C251.969 327.394 252.967 328.911 254.464 329.037L273.926 331.691L272.803 328.784Z" fill="white" stroke="#263238" stroke-miterlimit="10" stroke-linecap="round" stroke-linejoin="round"/>
<path d="M280.154 321.818L270.336 332.758L273.383 335.563L283.2 324.622L280.154 321.818Z" fill="white" stroke="#263238" stroke-miterlimit="10" stroke-linecap="round" stroke-linejoin="round"/>
<path d="M279.915 210.892C279.915 210.892 246.729 241.976 245.107 250.569C243.485 259.161 277.17 314.885 277.17 314.885L283.782 312.611C283.782 312.611 264.819 263.71 267.314 260.046C269.809 256.381 314.099 226.055 320.711 215.82C327.323 205.585 323.58 195.224 318.59 190.548C313.6 185.873 279.915 210.892 279.915 210.892Z" fill="#263238"/>
<path d="M257.957 250.569L267.189 260.046L262.573 248.547" stroke="white" stroke-width="0.75" stroke-miterlimit="10" stroke-linecap="round" stroke-linejoin="round"/>
<path d="M251.47 269.27C251.47 269.27 244.733 252.59 246.729 247.41C248.725 242.229 281.786 216.957 281.786 216.957C281.786 216.957 298.254 211.271 309.483 213.546" stroke="white" stroke-width="0.75" stroke-miterlimit="10" stroke-linecap="round" stroke-linejoin="round"/>
<path d="M300.375 210.513C300.375 210.513 306.114 207.733 314.598 210.892" stroke="white" stroke-width="0.75" stroke-miterlimit="10" stroke-linecap="round" stroke-linejoin="round"/>
<path d="M277.17 314.885C277.17 314.885 274.176 318.17 271.182 321.329C268.187 324.362 264.32 325.246 265.692 326.005C267.065 326.889 269.31 327.647 273.427 326.257C277.544 324.867 282.784 320.192 282.784 320.192L283.657 321.582L288.274 319.055L283.907 312.611L277.17 314.885Z" fill="#263238"/>
<path d="M260.328 100.202C256.211 95.7796 248.85 93.1261 242.861 94.137C236.998 95.2742 235.376 103.235 234.253 108.163L233.255 112.585L233.38 115.997L231.508 123.199C231.259 124.084 231.883 125.095 232.881 125.221L235.002 125.474C235.376 127.875 237.746 132.55 237.996 134.193C239.243 140.51 243.36 140.131 245.98 139.121C247.103 138.741 248.975 137.478 250.721 135.962L256.959 141.269L268.063 129.012L263.322 122.062C263.322 122.062 264.694 104.877 260.328 100.202Z" fill="white" stroke="#263238" stroke-miterlimit="10" stroke-linecap="round" stroke-linejoin="round"/>
<path d="M237.621 117.766C237.746 118.777 237.621 119.661 237.247 119.661C236.873 119.788 236.374 119.03 236.249 118.019C236.124 117.008 236.249 116.123 236.623 116.123C236.998 115.997 237.497 116.755 237.621 117.766Z" fill="#263238"/>
<path d="M234.627 113.849C234.627 113.849 237.247 111.574 239.243 114.481" stroke="#263238" stroke-miterlimit="10" stroke-linecap="round" stroke-linejoin="round"/>
<path d="M243.984 106.773C243.984 106.773 240.616 110.816 241.863 112.206C243.111 113.723 247.228 117.008 247.228 117.008C247.228 117.008 250.097 111.701 254.339 113.849C258.456 115.997 255.212 121.051 256.585 123.073C258.082 125.221 263.072 122.062 263.447 120.925C263.821 119.914 271.306 104.498 271.805 98.8122C272.18 93.1261 256.834 87.44 250.222 86.1764C243.61 84.9128 238.62 87.8191 239.867 86.5555C241.115 85.2919 243.236 81.8802 239.243 81.5012C235.251 81.1221 230.136 87.1873 230.136 90.7253C230.136 94.2633 233.629 94.5161 233.629 94.5161C233.629 94.5161 223.648 91.9889 226.393 97.9277C229.138 103.867 233.629 103.614 237.871 103.867C241.863 104.246 243.984 106.773 243.984 106.773Z" fill="#263238"/>
<path d="M251.594 114.607H251.47C250.846 114.481 250.347 113.849 250.347 113.217L251.844 100.202C251.969 99.5704 252.468 99.0649 253.216 99.0649C253.84 99.1913 254.339 99.8231 254.339 100.455L252.842 113.47C252.842 114.102 252.218 114.607 251.594 114.607Z" fill="white" stroke="#263238" stroke-miterlimit="10"/>
<path d="M251.095 126.864C247.976 126.864 245.357 124.21 245.357 121.051V115.618C245.357 112.459 247.976 109.805 251.095 109.805C254.214 109.805 256.834 112.459 256.834 115.618V121.051C256.834 124.21 254.214 126.864 251.095 126.864Z" fill="white" stroke="#263238" stroke-miterlimit="10"/>
<path d="M252.468 87.3136L250.596 100.708C250.347 102.098 251.345 103.487 252.842 103.614H252.967C254.339 103.74 255.587 102.729 255.836 101.339L257.458 87.8191C257.583 86.4291 256.71 85.1655 255.212 84.9128C253.965 85.0392 252.717 85.9237 252.468 87.3136Z" fill="white" stroke="#263238" stroke-miterlimit="10"/>
<path d="M269.684 124.084C269.684 124.084 249.723 142.406 249.973 145.438C250.222 148.471 249.598 162.118 257.084 177.407C264.445 192.696 273.427 205.585 276.671 211.398C279.915 217.21 289.521 212.914 289.521 212.914C289.521 212.914 309.732 205.711 316.344 199.393C322.957 192.949 316.344 181.324 316.344 181.324C316.344 181.324 292.016 146.07 284.032 137.352C276.047 128.759 269.684 124.084 269.684 124.084Z" fill="#BAEF00" stroke="#263238" stroke-miterlimit="10" stroke-linecap="round" stroke-linejoin="round"/>
<path d="M249.598 148.092C249.598 148.092 253.715 144.428 256.959 141.395C260.203 138.362 276.921 134.951 281.038 135.835C285.155 136.72 286.277 140.51 287.026 140.258C287.899 140.005 288.274 134.572 283.907 127.243C279.54 119.914 272.928 116.755 269.31 119.03C265.817 121.304 257.084 132.55 253.341 137.099C249.598 141.774 248.101 144.428 249.598 148.092Z" fill="#BAEF00" stroke="#263238" stroke-miterlimit="10" stroke-linecap="round" stroke-linejoin="round"/>
<path d="M267.938 172.226C267.938 172.226 281.287 173.364 290.644 171.468" stroke="#263238" stroke-miterlimit="10" stroke-linecap="round" stroke-linejoin="round"/>
<path d="M262.698 173.364C262.698 173.364 275.299 181.324 288.398 182.082" stroke="#263238" stroke-miterlimit="10" stroke-linecap="round" stroke-linejoin="round"/>
<path d="M274.425 140.005C274.425 140.005 267.564 137.478 262.074 140.51C256.585 143.543 234.502 175.764 234.502 175.764L245.731 187.895L280.164 165.782" fill="#BAEF00"/>
<path d="M274.425 140.005C274.425 140.005 267.564 137.478 262.074 140.51C256.585 143.543 234.502 175.764 234.502 175.764L245.731 187.895L280.164 165.782" stroke="#263238" stroke-miterlimit="10" stroke-linecap="round" stroke-linejoin="round"/>
<path d="M234.502 172.858C234.502 172.858 230.76 176.27 230.884 177.407C231.009 178.544 241.489 189.917 242.737 190.675C243.984 191.433 248.101 188.274 247.976 186.758C247.852 185.241 235.875 172.985 235.875 172.985C235.875 172.985 235.251 171.847 234.502 172.858Z" fill="#C6FF00" stroke="#263238" stroke-miterlimit="10" stroke-linecap="round" stroke-linejoin="round"/>
<path d="M3.44904 378.317H491.755C493.252 378.317 494.375 377.053 494.375 375.663C494.375 374.147 493.252 373.01 491.755 373.01H3.44904C1.95193 373.01 0.829102 374.273 0.829102 375.663C0.829102 377.18 1.95193 378.317 3.44904 378.317Z" fill="#263238"/>
</g>
<defs>
<clipPath id="clip0_83_730">
<rect width="493.671" height="378.317" fill="white" transform="translate(0.829102)"/>
</clipPath>
</defs>
</svg>
